<svg xmlns="http://www.w3.org/2000/svg" xmlns:xlink="http://www.w3.org/1999/xlink" width="2000" zoomAndPan="magnify" viewBox="0 0 1500 1499.999933" height="2000" preserveAspectRatio="xMidYMid meet" version="1.0"><defs><clipPath id="4f361fcd2e"><path d="M 207 207 L 1293 207 L 1293 1293 L 207 1293 Z M 207 207 " clip-rule="nonzero"/></clipPath><clipPath id="e2675be3c6"><path d="M 198.730469 746.488281 L 753.894531 198.589844 L 1301.792969 753.753906 L 746.628906 1301.652344 Z M 198.730469 746.488281 " clip-rule="nonzero"/></clipPath><clipPath id="407d9b4261"><path d="M 198.730469 746.488281 L 753.636719 198.84375 L 1301.277344 753.75 L 746.371094 1301.394531 Z M 198.730469 746.488281 " clip-rule="nonzero"/></clipPath><clipPath id="9b30b6d7fa"><path d="M 214.210938 731.210938 L 738.15625 214.125 C 746.703125 205.6875 760.476562 205.777344 768.914062 214.324219 L 1286 738.269531 C 1294.4375 746.820312 1294.347656 760.589844 1285.796875 769.027344 L 761.851562 1286.117188 C 753.304688 1294.554688 739.53125 1294.464844 731.09375 1285.914062 L 214.007812 761.96875 C 205.570312 753.417969 205.660156 739.648438 214.210938 731.210938 Z M 214.210938 731.210938 " clip-rule="nonzero"/></clipPath><clipPath id="a667b56df1"><path d="M 671 783 L 717 783 L 717 829 L 671 829 Z M 671 783 " clip-rule="nonzero"/></clipPath><clipPath id="61013276b8"><path d="M 749.996094 898.796875 L 600.972656 749.773438 L 749.996094 600.75 L 899.019531 749.773438 Z M 749.996094 898.796875 " clip-rule="nonzero"/></clipPath><clipPath id="7c1b57c7db"><path d="M 749.996094 898.796875 L 600.972656 749.773438 L 749.996094 600.75 L 899.019531 749.773438 Z M 749.996094 898.796875 " clip-rule="nonzero"/></clipPath><clipPath id="89ee077155"><path d="M 783 783 L 829 783 L 829 829 L 783 829 Z M 783 783 " clip-rule="nonzero"/></clipPath><clipPath id="cf066100e1"><path d="M 749.996094 898.796875 L 600.972656 749.773438 L 749.996094 600.75 L 899.019531 749.773438 Z M 749.996094 898.796875 " clip-rule="nonzero"/></clipPath><clipPath id="f277efa854"><path d="M 749.996094 898.796875 L 600.972656 749.773438 L 749.996094 600.75 L 899.019531 749.773438 Z M 749.996094 898.796875 " clip-rule="nonzero"/></clipPath><clipPath id="7a5d3d3964"><path d="M 802 736 L 856 736 L 856 764 L 802 764 Z M 802 736 " clip-rule="nonzero"/></clipPath><clipPath id="b7b9c836e6"><path d="M 749.996094 898.796875 L 600.972656 749.773438 L 749.996094 600.75 L 899.019531 749.773438 Z M 749.996094 898.796875 " clip-rule="nonzero"/></clipPath><clipPath id="fbd4b54bab"><path d="M 749.996094 898.796875 L 600.972656 749.773438 L 749.996094 600.75 L 899.019531 749.773438 Z M 749.996094 898.796875 " clip-rule="nonzero"/></clipPath><clipPath id="fff4ac1e8f"><path d="M 783 671 L 829 671 L 829 717 L 783 717 Z M 783 671 " clip-rule="nonzero"/></clipPath><clipPath id="2a87dae26f"><path d="M 749.996094 898.796875 L 600.972656 749.773438 L 749.996094 600.75 L 899.019531 749.773438 Z M 749.996094 898.796875 " clip-rule="nonzero"/></clipPath><clipPath id="94096f9c38"><path d="M 749.996094 898.796875 L 600.972656 749.773438 L 749.996094 600.75 L 899.019531 749.773438 Z M 749.996094 898.796875 " clip-rule="nonzero"/></clipPath><clipPath id="010a207a70"><path d="M 736 644 L 764 644 L 764 698 L 736 698 Z M 736 644 " clip-rule="nonzero"/></clipPath><clipPath id="ecb4244019"><path d="M 749.996094 898.796875 L 600.972656 749.773438 L 749.996094 600.75 L 899.019531 749.773438 Z M 749.996094 898.796875 " clip-rule="nonzero"/></clipPath><clipPath id="6da718873b"><path d="M 749.996094 898.796875 L 600.972656 749.773438 L 749.996094 600.75 L 899.019531 749.773438 Z M 749.996094 898.796875 " clip-rule="nonzero"/></clipPath><clipPath id="187dcf3da3"><path d="M 671 671 L 717 671 L 717 717 L 671 717 Z M 671 671 " clip-rule="nonzero"/></clipPath><clipPath id="49176b66b5"><path d="M 749.996094 898.796875 L 600.972656 749.773438 L 749.996094 600.75 L 899.019531 749.773438 Z M 749.996094 898.796875 " clip-rule="nonzero"/></clipPath><clipPath id="1de840aee7"><path d="M 749.996094 898.796875 L 600.972656 749.773438 L 749.996094 600.75 L 899.019531 749.773438 Z M 749.996094 898.796875 " clip-rule="nonzero"/></clipPath><clipPath id="9f6d09d522"><path d="M 644 736 L 698 736 L 698 764 L 644 764 Z M 644 736 " clip-rule="nonzero"/></clipPath><clipPath id="4a2f823171"><path d="M 749.996094 898.796875 L 600.972656 749.773438 L 749.996094 600.75 L 899.019531 749.773438 Z M 749.996094 898.796875 " clip-rule="nonzero"/></clipPath><clipPath id="0a6feb30c4"><path d="M 749.996094 898.796875 L 600.972656 749.773438 L 749.996094 600.75 L 899.019531 749.773438 Z M 749.996094 898.796875 " clip-rule="nonzero"/></clipPath></defs><g clip-path="url(#4f361fcd2e)"><g clip-path="url(#e2675be3c6)"><g clip-path="url(#407d9b4261)"><g clip-path="url(#9b30b6d7fa)"><path stroke-linecap="butt" transform="matrix(0.533812, -0.526825, 0.526825, 0.533812, 198.729215, 746.488332)" fill="none" stroke-linejoin="miter" d="M 29.000618 0.00160466 L 1010.515771 0.00309087 C 1026.529128 0.000724792 1039.515966 12.985887 1039.518332 28.999244 L 1039.516845 1010.514397 C 1039.515553 1026.531461 1026.53405 1039.514592 1010.516986 1039.513299 L 28.998174 1039.51552 C 12.984817 1039.517886 -0.0020207 1026.532724 -0.000728267 1010.51566 L 0.000757944 29.000507 C 0.00205038 12.983443 12.983554 0.000312223 29.000618 0.00160466 Z M 29.000618 0.00160466 " stroke="#a4ecee" stroke-width="40" stroke-opacity="1" stroke-miterlimit="4"/></g></g></g></g><path stroke-linecap="butt" transform="matrix(0.75, 0.000000000000000186, -0.000000000000000186, 0.75, 211.132998, 736.499917)" fill="none" stroke-linejoin="miter" d="M -0.000246753 10.000112 L 459.572709 10.000112 " stroke="#a4ecee" stroke-width="20" stroke-opacity="1" stroke-miterlimit="4"/><path stroke-linecap="butt" transform="matrix(0.260335, -0.703367, 0.703367, 0.260335, 548.77849, 741.39426)" fill="none" stroke-linejoin="miter" d="M 0.00205656 9.999719 L 756.102761 9.999887 " stroke="#a4ecee" stroke-width="20" stroke-opacity="1" stroke-miterlimit="4"/><path stroke-linecap="butt" transform="matrix(-0.247269, -0.708066, 0.708066, -0.247269, 739.101234, 1291.609213)" fill="none" stroke-linejoin="miter" d="M -0.000995113 10.00205 L 769.900589 9.999131 " stroke="#a4ecee" stroke-width="20" stroke-opacity="1" stroke-miterlimit="4"/><path stroke-linecap="butt" transform="matrix(-0.75, 0, 0, -0.75, 1280.886715, 759.192563)" fill="none" stroke-linejoin="miter" d="M -0.0000049694 10.001543 L 458.947951 10.001543 " stroke="#a4ecee" stroke-width="20" stroke-opacity="1" stroke-miterlimit="4"/><path stroke-linecap="butt" transform="matrix(-0.257034, 0.70458, -0.70458, -0.257034, 948.225, 754.267715)" fill="none" stroke-linejoin="miter" d="M 0.00208551 9.998543 L 758.65439 9.99932 " stroke="#a4ecee" stroke-width="20" stroke-opacity="1" stroke-miterlimit="4"/><path stroke-linecap="butt" transform="matrix(0.247417, 0.708015, -0.708015, 0.247417, 759.732976, 209.710407)" fill="none" stroke-linejoin="miter" d="M -0.00145657 10.000179 L 762.004033 10.003249 " stroke="#a4ecee" stroke-width="20" stroke-opacity="1" stroke-miterlimit="4"/><g clip-path="url(#a667b56df1)"><g clip-path="url(#61013276b8)"><g clip-path="url(#7c1b57c7db)"><path fill="#a4ecee" d="M 712.796875 787.195312 C 707.671875 782.070312 699.324219 782.070312 694.199219 787.195312 L 675.597656 805.796875 C 670.472656 810.925781 670.472656 819.269531 675.597656 824.398438 C 680.722656 829.523438 689.070312 829.523438 694.199219 824.398438 L 712.796875 805.796875 C 717.925781 800.671875 717.925781 792.324219 712.796875 787.195312 Z M 712.796875 787.195312 " fill-opacity="1" fill-rule="nonzero"/></g></g></g><g clip-path="url(#89ee077155)"><g clip-path="url(#cf066100e1)"><g clip-path="url(#f277efa854)"><path fill="#a4ecee" d="M 787.195312 805.796875 L 805.796875 824.398438 C 810.921875 829.523438 819.269531 829.523438 824.398438 824.398438 C 829.523438 819.269531 829.523438 810.921875 824.398438 805.796875 L 805.796875 787.195312 C 800.671875 782.070312 792.324219 782.070312 787.195312 787.195312 C 782.070312 792.324219 782.070312 800.671875 787.195312 805.796875 Z M 787.195312 805.796875 " fill-opacity="1" fill-rule="nonzero"/></g></g></g><g clip-path="url(#7a5d3d3964)"><g clip-path="url(#b7b9c836e6)"><g clip-path="url(#fbd4b54bab)"><path fill="#a4ecee" d="M 855.210938 749.996094 C 855.210938 746.484375 853.84375 743.179688 851.359375 740.699219 C 848.878906 738.214844 845.574219 736.847656 842.0625 736.847656 L 815.757812 736.847656 C 808.511719 736.847656 802.609375 742.75 802.609375 749.996094 C 802.609375 757.246094 808.511719 763.148438 815.757812 763.148438 L 842.0625 763.148438 C 849.308594 763.148438 855.210938 757.246094 855.210938 749.996094 Z M 855.210938 749.996094 " fill-opacity="1" fill-rule="nonzero"/></g></g></g><g clip-path="url(#fff4ac1e8f)"><g clip-path="url(#2a87dae26f)"><g clip-path="url(#94096f9c38)"><path fill="#a4ecee" d="M 824.398438 694.199219 C 829.523438 689.070312 829.523438 680.722656 824.398438 675.597656 C 819.269531 670.472656 810.921875 670.472656 805.796875 675.597656 L 787.195312 694.199219 C 782.070312 699.324219 782.070312 707.671875 787.195312 712.796875 C 792.324219 717.925781 800.671875 717.925781 805.796875 712.796875 Z M 824.398438 694.199219 " fill-opacity="1" fill-rule="nonzero"/></g></g></g><g clip-path="url(#010a207a70)"><g clip-path="url(#ecb4244019)"><g clip-path="url(#6da718873b)"><path fill="#a4ecee" d="M 763.148438 684.234375 L 763.148438 657.933594 C 763.148438 654.417969 761.78125 651.117188 759.296875 648.632812 C 756.8125 646.148438 753.511719 644.78125 749.996094 644.78125 C 742.75 644.78125 736.847656 650.6875 736.847656 657.933594 L 736.847656 684.234375 C 736.847656 691.480469 742.75 697.386719 749.996094 697.386719 C 757.246094 697.386719 763.148438 691.480469 763.148438 684.234375 Z M 763.148438 684.234375 " fill-opacity="1" fill-rule="nonzero"/></g></g></g><g clip-path="url(#187dcf3da3)"><g clip-path="url(#49176b66b5)"><g clip-path="url(#1de840aee7)"><path fill="#a4ecee" d="M 675.597656 694.199219 L 694.199219 712.796875 C 699.324219 717.925781 707.671875 717.925781 712.796875 712.796875 C 717.925781 707.671875 717.925781 699.324219 712.796875 694.199219 L 694.199219 675.597656 C 689.070312 670.472656 680.722656 670.472656 675.597656 675.597656 C 670.472656 680.726562 670.472656 689.070312 675.597656 694.199219 Z M 675.597656 694.199219 " fill-opacity="1" fill-rule="nonzero"/></g></g></g><g clip-path="url(#9f6d09d522)"><g clip-path="url(#4a2f823171)"><g clip-path="url(#0a6feb30c4)"><path fill="#a4ecee" d="M 693.535156 740.699219 C 691.050781 738.214844 687.75 736.847656 684.234375 736.847656 L 657.933594 736.847656 C 650.6875 736.847656 644.78125 742.75 644.78125 749.996094 C 644.78125 757.246094 650.6875 763.148438 657.933594 763.148438 L 684.234375 763.148438 C 691.480469 763.148438 697.386719 757.246094 697.386719 749.996094 C 697.386719 746.484375 696.019531 743.179688 693.535156 740.699219 Z M 693.535156 740.699219 " fill-opacity="1" fill-rule="nonzero"/></g></g></g></svg>
